<?xml version="1.0" encoding="UTF-8" standalone="no"?><!-- Generator: Gravit.io --><svg xmlns="http://www.w3.org/2000/svg" xmlns:xlink="http://www.w3.org/1999/xlink" style="isolation:isolate" viewBox="0 0 192 192" width="192pt" height="192pt"><defs><clipPath id="_clipPath_OTkIHOFRSeFEH1Dv8t69JGmev4dShKSS"><rect width="192" height="192"/></clipPath></defs><g clip-path="url(#_clipPath_OTkIHOFRSeFEH1Dv8t69JGmev4dShKSS)"><g><circle vector-effect="non-scaling-stroke" cx="96" cy="96" r="96" fill="rgb(0,123,255)"/><path d=" M 191.745 102.995 L 140.5 51.75 L 28.875 133.536 L 47.213 151.873 L 32.374 157.25 L 60.234 185.11 C 71.288 189.551 83.358 192 96 192 C 146.667 192 188.162 152.748 191.745 102.995 Z " fill="rgb(2,93,189)"/><path d=" M 123.5 34.75 L 51.5 34.75 L 51.5 157.25 L 140.5 157.25 L 140.5 51.75 L 123.5 34.75 Z " fill="rgb(255,255,255)"/><path d=" M 140.5 51.75 L 123.5 34.75 L 96.102 34.75 L 96.102 157.25 L 140.5 157.25 L 140.5 51.75 Z " fill="rgb(224,224,224)"/><path d=" M 123.5 51.75 L 140.5 51.75 L 123.5 34.75 L 123.5 51.75 Z " fill="rgb(192,192,192)"/><rect x="90.769" y="75.45" width="69.66" height="84.611" transform="matrix(1,0,0,1,0,0)" fill="rgb(51,51,51)"/><rect x="124.62" y="75.45" width="35.813" height="84.611" transform="matrix(1,0,0,1,0,0)" fill="rgb(26,26,26)"/><rect x="95.588" y="80.419" width="60.03" height="18.207" transform="matrix(1,0,0,1,0,0)" fill="rgb(185,234,255)"/><rect x="124.62" y="80.419" width="30.998" height="18.207" transform="matrix(1,0,0,1,0,0)" fill="rgb(53,204,255)"/><g><circle vector-effect="non-scaling-stroke" cx="101.59874999999998" cy="111.69375000000001" r="5.287499999999994" fill="rgb(128,128,128)"/><circle vector-effect="non-scaling-stroke" cx="117.03375000000001" cy="111.69375000000001" r="5.287499999999994" fill="rgb(128,128,128)"/></g><circle vector-effect="non-scaling-stroke" cx="132.46875" cy="111.69375000000001" r="5.287499999999994" fill="rgb(102,102,102)"/><g><circle vector-effect="non-scaling-stroke" cx="101.59874999999998" cy="129.17625" r="5.287499999999994" fill="rgb(128,128,128)"/><circle vector-effect="non-scaling-stroke" cx="117.03375000000001" cy="129.17625" r="5.287499999999994" fill="rgb(128,128,128)"/></g><circle vector-effect="non-scaling-stroke" cx="132.46875" cy="129.17625" r="5.287499999999994" fill="rgb(102,102,102)"/><g><circle vector-effect="non-scaling-stroke" cx="101.59874999999998" cy="146.655" r="5.287499999999994" fill="rgb(128,128,128)"/><circle vector-effect="non-scaling-stroke" cx="117.03375000000001" cy="146.655" r="5.287499999999994" fill="rgb(128,128,128)"/></g><circle vector-effect="non-scaling-stroke" cx="132.46875" cy="146.655" r="5.287499999999994" fill="rgb(102,102,102)"/><g><circle vector-effect="non-scaling-stroke" cx="148.95374999999999" cy="111.69375000000001" r="5.287499999999994" fill="rgb(255,104,56)"/><circle vector-effect="non-scaling-stroke" cx="148.95374999999999" cy="129.17625" r="5.287499999999994" fill="rgb(255,104,56)"/><circle vector-effect="non-scaling-stroke" cx="148.95374999999999" cy="146.655" r="5.287499999999994" fill="rgb(255,104,56)"/></g><rect x="32.374" y="145.391" width="45" height="11.857" transform="matrix(1,0,0,1,0,0)" fill="rgb(255,220,0)"/><rect x="54.056" y="145.391" width="23.314" height="11.857" transform="matrix(1,0,0,1,0,0)" fill="rgb(255,192,0)"/><rect x="28.875" y="121.68" width="45" height="11.857" transform="matrix(1,0,0,1,0,0)" fill="rgb(255,220,0)"/><rect x="54.056" y="121.68" width="19.816" height="11.857" transform="matrix(1,0,0,1,0,0)" fill="rgb(255,192,0)"/><rect x="36.844" y="133.538" width="45" height="11.857" transform="matrix(1,0,0,1,0,0)" fill="rgb(255,179,68)"/><rect x="54.056" y="133.538" width="27.787" height="11.857" transform="matrix(1,0,0,1,0,0)" fill="rgb(255,148,81)"/><rect x="32.374" y="109.823" width="45" height="11.857" transform="matrix(1,0,0,1,0,0)" fill="rgb(255,179,68)"/><rect x="54.056" y="109.823" width="23.314" height="11.857" transform="matrix(1,0,0,1,0,0)" fill="rgb(255,148,81)"/></g></g></svg>